<svg width="41" height="39" viewBox="0 0 41 39" fill="none" xmlns="http://www.w3.org/2000/svg">
<path d="M40.1821 6.06714C40.7715 7.36053 35.6252 10.9624 28.6862 14.1086C28.2414 14.305 27.7448 14.5315 27.21 14.7662L20.5738 37.7035L18.7074 38.5439L19.4933 17.956C14.2187 20.0544 8.36024 22.2155 4.76929 23.2415L3.71056 31.8777L3.18666 32.1261L2.48538 23.7817C1.83869 23.8827 1.44576 23.8745 1.37481 23.7053C1.29841 23.5389 1.54399 23.236 2.04334 22.8212L-3.77148 16.81L-3.23666 16.5644L3.95887 21.4542C7.09686 19.424 12.5788 16.4334 17.635 13.8248L1.59856 0.879913L3.45134 0.0285645L25.0925 10.111C25.6246 9.86001 26.1185 9.63353 26.5605 9.4316C33.4996 6.27725 39.5982 4.77647 40.1821 6.06714Z" fill="#90BDE6"/>
</svg>
