<svg width="19" height="18" viewBox="0 0 19 18" fill="none" xmlns="http://www.w3.org/2000/svg">
<path d="M17.4352 9.7473C17.8494 9.7473 18.1852 9.41152 18.1852 8.9973C18.1852 8.58309 17.8494 8.2473 17.4352 8.2473V9.7473ZM17.4991 12.8485C17.9133 12.8485 18.2491 12.5127 18.2491 12.0985C18.2491 11.6843 17.9133 11.3485 17.4991 11.3485V12.8485ZM18.1721 8.85819C18.0953 8.45116 17.7031 8.18349 17.2961 8.26032C16.889 8.33715 16.6213 8.72939 16.6982 9.13641L18.1721 8.85819ZM17.5186 9.88665H18.2686V9.8866L17.5186 9.88665ZM16.7522 12.0264C16.7146 12.4389 17.0186 12.8038 17.4311 12.8414C17.8436 12.879 18.2084 12.5751 18.246 12.1626L16.7522 12.0264ZM16.6978 9.13422C16.7734 9.54147 17.1648 9.81032 17.5721 9.73471C17.9793 9.65909 18.2482 9.26765 18.1726 8.8604L16.6978 9.13422ZM13.3234 4.0208C12.9219 3.91871 12.5138 4.16138 12.4117 4.56282C12.3096 4.96425 12.5523 5.37244 12.9537 5.47453L13.3234 4.0208ZM18.2465 12.1608C18.281 11.748 17.9742 11.3855 17.5615 11.3511C17.1487 11.3167 16.7861 11.6234 16.7517 12.0362L18.2465 12.1608ZM11.5209 17.0004V17.7504L11.5256 17.7504L11.5209 17.0004ZM7.52242 17.0004L7.51723 17.7504H7.52242V17.0004ZM1.52474 11.6653L2.27474 11.672V11.6653H1.52474ZM1.52474 9.88665H2.27474L2.27474 9.88583L1.52474 9.88665ZM2.59355 8.31158C2.75352 7.9295 2.57346 7.49008 2.19138 7.33012C1.8093 7.17015 1.36989 7.3502 1.20992 7.73228L2.59355 8.31158ZM12.9573 5.47515C13.3591 5.57588 13.7664 5.33183 13.8672 4.93005C13.9679 4.52827 13.7239 4.12091 13.3221 4.02018L12.9573 5.47515ZM11.5209 4.54758L11.5219 3.79758H11.5209V4.54758ZM7.52243 4.54758V3.79758L7.51939 3.79759L7.52243 4.54758ZM1.20825 7.73635C1.05053 8.11936 1.23316 8.55771 1.61617 8.71543C1.99918 8.87315 2.43753 8.69052 2.59525 8.30751L1.20825 7.73635ZM12.5054 5.1479C12.7264 5.4982 13.1896 5.60299 13.5399 5.38194C13.8902 5.1609 13.995 4.69773 13.774 4.34743L12.5054 5.1479ZM12.2029 3.26309L11.5603 3.64979C11.563 3.65433 11.5658 3.65884 11.5686 3.66332L12.2029 3.26309ZM9.22648 1.15758L9.04778 1.88598L9.22648 1.15758ZM5.43409 1.60245L5.08582 0.938204L5.08351 0.939426L5.43409 1.60245ZM4.00378 2.35874L3.65316 1.69564L3.64285 1.7013L4.00378 2.35874ZM1.22015 8.33488C1.39299 8.71131 1.83826 8.87635 2.21469 8.70352C2.59112 8.53068 2.75617 8.08541 2.58333 7.70898L1.22015 8.33488ZM17.4352 8.2473H15.276V9.7473H17.4352V8.2473ZM15.276 8.2473C13.9805 8.2473 12.7552 9.18688 12.7552 10.5479H14.2552C14.2552 10.1962 14.6156 9.7473 15.276 9.7473V8.2473ZM12.7552 10.5479C12.7552 11.9089 13.9805 12.8485 15.276 12.8485V11.3485C14.6156 11.3485 14.2552 10.8996 14.2552 10.5479H12.7552ZM15.276 12.8485H17.4991V11.3485H15.276V12.8485ZM16.6982 9.13641C16.745 9.38471 16.7685 9.63559 16.7686 9.88669L18.2686 9.8866C18.2685 9.54181 18.2363 9.19781 18.1721 8.85819L16.6982 9.13641ZM16.7686 9.88665V11.6653H18.2686V9.88665H16.7686ZM16.7686 11.6653C16.7686 11.7869 16.7631 11.9072 16.7522 12.0264L18.246 12.1626C18.2611 11.9977 18.2686 11.8319 18.2686 11.6653H16.7686ZM18.1726 8.8604C17.7354 6.50567 15.8102 4.65322 13.3234 4.0208L12.9537 5.47453C14.9642 5.9858 16.3834 7.44116 16.6978 9.13422L18.1726 8.8604ZM16.7517 12.0362C16.5613 14.3194 14.3592 16.2325 11.5162 16.2504L11.5256 17.7504C14.9768 17.7287 17.9785 15.3749 18.2465 12.1608L16.7517 12.0362ZM11.5209 16.2504H7.52242V17.7504H11.5209V16.2504ZM7.52761 16.2504C4.50697 16.2295 2.25323 14.09 2.27471 11.672L0.774768 11.6587C0.744307 15.0876 3.86082 17.7251 7.51723 17.7504L7.52761 16.2504ZM2.27474 11.6653V9.88665H0.774738V11.6653H2.27474ZM2.27474 9.88583C2.27415 9.3512 2.38129 8.81856 2.59355 8.31158L1.20992 7.73228C0.922042 8.41988 0.773927 9.14977 0.774739 9.88748L2.27474 9.88583ZM13.3221 4.02018C12.7358 3.87319 12.1301 3.79843 11.5219 3.79759L11.5198 5.29758C12.0068 5.29826 12.4907 5.35817 12.9573 5.47515L13.3221 4.02018ZM11.5209 3.79758H7.52243V5.29758H11.5209V3.79758ZM7.51939 3.79759C4.74351 3.80885 2.1957 5.33845 1.20825 7.73635L2.59525 8.30751C3.31792 6.5526 5.2601 5.30677 7.52547 5.29758L7.51939 3.79759ZM13.774 4.34743L12.8372 2.86285L11.5686 3.66332L12.5054 5.1479L13.774 4.34743ZM12.8455 2.87639C12.1123 1.65788 10.8588 0.785802 9.40519 0.429179L9.04778 1.88598C10.1547 2.15754 11.0539 2.80828 11.5603 3.64979L12.8455 2.87639ZM9.40519 0.429179C7.95191 0.0726365 6.39263 0.253039 5.08582 0.938208L5.78235 2.26668C6.75697 1.75568 7.94055 1.61433 9.04778 1.88598L9.40519 0.429179ZM5.08351 0.939426L3.6532 1.69572L4.35436 3.02176L5.78467 2.26546L5.08351 0.939426ZM3.64285 1.7013C1.16859 3.05965 0.0786685 5.84881 1.22015 8.33488L2.58333 7.70898C1.81068 6.02619 2.49158 4.04451 4.36471 3.01618L3.64285 1.7013Z" fill="#FF8300"/>
</svg>
