<svg width="21" height="20" viewBox="0 0 21 20" fill="none" xmlns="http://www.w3.org/2000/svg">
<path d="M19.2505 6.27964C19.2652 6.69359 19.6127 7.01722 20.0267 7.00248C20.4406 6.98774 20.7643 6.64021 20.7495 6.22626L19.2505 6.27964ZM14.6425 1.25295V2.00295C14.6509 2.00295 14.6592 2.00281 14.6676 2.00253L14.6425 1.25295ZM6.6075 1.25295L6.58245 2.00253C6.5908 2.00281 6.59915 2.00295 6.6075 2.00295V1.25295ZM0.500475 6.22626C0.485735 6.64021 0.809359 6.98774 1.22331 7.00248C1.63726 7.01722 1.98478 6.69359 1.99952 6.27964L0.500475 6.22626ZM20.75 6.25295C20.75 5.83874 20.4142 5.50295 20 5.50295C19.5858 5.50295 19.25 5.83874 19.25 6.25295H20.75ZM20 13.7529L20.7495 13.7796C20.7498 13.7707 20.75 13.7618 20.75 13.7529H20ZM14.6425 18.7529L14.6676 18.0034C14.6592 18.0031 14.6509 18.0029 14.6425 18.0029V18.7529ZM6.6075 18.7529V18.0029C6.59915 18.0029 6.5908 18.0031 6.58245 18.0034L6.6075 18.7529ZM1.25 13.7529H0.5C0.5 13.7618 0.500158 13.7707 0.500475 13.7796L1.25 13.7529ZM2 6.25295C2 5.83874 1.66421 5.50295 1.25 5.50295C0.835786 5.50295 0.5 5.83874 0.5 6.25295H2ZM20.3783 6.90055C20.736 6.69162 20.8565 6.23231 20.6476 5.87465C20.4387 5.51699 19.9794 5.39642 19.6217 5.60535L20.3783 6.90055ZM13.42 10.0967L13.0417 9.44907L13.0355 9.45279L13.42 10.0967ZM7.83 10.0967L8.21456 9.45276L8.2083 9.4491L7.83 10.0967ZM1.6283 5.60535C1.27064 5.39642 0.811328 5.51699 0.602398 5.87465C0.393468 6.23231 0.514038 6.69162 0.871699 6.90055L1.6283 5.60535ZM20.7495 6.22626C20.633 2.95421 17.8897 0.393999 14.6174 0.50337L14.6676 2.00253C17.1132 1.92079 19.1634 3.83421 19.2505 6.27964L20.7495 6.22626ZM14.6425 0.502951H6.6075V2.00295H14.6425V0.502951ZM6.63255 0.50337C3.36025 0.393999 0.61699 2.95421 0.500475 6.22626L1.99952 6.27964C2.0866 3.83421 4.13683 1.92079 6.58245 2.00253L6.63255 0.50337ZM19.25 6.25295V13.7529H20.75V6.25295H19.25ZM19.2505 13.7263C19.1634 16.1717 17.1132 18.0851 14.6676 18.0034L14.6174 19.5025C17.8897 19.6119 20.633 17.0517 20.7495 13.7796L19.2505 13.7263ZM14.6425 18.0029H6.6075V19.5029H14.6425V18.0029ZM6.58245 18.0034C4.13683 18.0851 2.0866 16.1717 1.99952 13.7263L0.500475 13.7796C0.61699 17.0517 3.36025 19.6119 6.63255 19.5025L6.58245 18.0034ZM2 13.7529V6.25295H0.5V13.7529H2ZM19.6217 5.60535L13.0417 9.4491L13.7983 10.7443L20.3783 6.90055L19.6217 5.60535ZM13.0355 9.45279C11.5508 10.3394 9.69921 10.3394 8.21454 9.45279L7.44546 10.7406C9.40383 11.9102 11.8462 11.9102 13.8045 10.7406L13.0355 9.45279ZM8.2083 9.4491L1.6283 5.60535L0.871699 6.90055L7.4517 10.7443L8.2083 9.4491Z" fill="#1D1D1D"/>
</svg>
