<svg width="22" height="22" viewBox="0 0 22 22" fill="none" xmlns="http://www.w3.org/2000/svg">
<path fill-rule="evenodd" clip-rule="evenodd" d="M19.3463 5.89076C18.3409 4.83076 17.9849 4.53343 17.5569 4.39609C17.2603 4.31806 16.9491 4.31349 16.6503 4.38276C16.2569 4.49743 16.1543 4.58409 14.8636 5.86809C13.7303 6.99609 13.6183 7.11876 13.5089 7.33476C13.2975 7.72353 13.2634 8.1845 13.4156 8.60009C13.5276 8.91343 13.6929 9.12143 14.3796 9.81209L14.8276 10.2614C14.9455 10.381 14.9734 10.5626 14.8969 10.7121C13.9024 12.4089 12.4918 13.8241 10.7983 14.8241C10.6029 14.9288 10.3623 14.8948 10.2036 14.7401L9.77294 14.3161C9.50683 14.043 9.22502 13.7857 8.92894 13.5454C8.46468 13.2582 7.88515 13.2304 7.3956 13.4721C7.15694 13.5841 7.07694 13.6574 5.9076 14.8228C4.7076 16.0228 4.66894 16.0614 4.53427 16.3374C4.28284 16.7946 4.28536 17.3492 4.54094 17.8041C4.67427 18.0601 4.74894 18.1534 5.42627 18.8454C5.8356 19.2641 6.22627 19.6454 6.28227 19.7014C6.84167 20.1637 7.55872 20.3908 8.28227 20.3348C9.60599 20.2136 10.8871 19.804 12.0356 19.1348C14.5812 17.7861 16.7481 15.8209 18.3383 13.4188C18.686 12.9166 18.9953 12.3889 19.2636 11.8401C19.9784 10.6147 20.3479 9.21863 20.3329 7.80009C20.2792 7.05545 19.9226 6.36538 19.3463 5.89076Z" stroke="#1D1D1D" stroke-width="1.5" stroke-linecap="round" stroke-linejoin="round"/>
<path d="M7.96222 0.960839C8.35208 0.820911 8.78156 1.02352 8.92149 1.41339C9.06142 1.80325 8.85881 2.23273 8.46895 2.37266L7.96222 0.960839ZM2.38378 8.35599C2.2373 8.74343 1.80446 8.93877 1.41701 8.79228C1.02957 8.64579 0.83423 8.21296 0.980718 7.82551L2.38378 8.35599ZM9.51703 3.93917C9.92107 3.84792 10.3226 4.10149 10.4138 4.50553C10.5051 4.90957 10.2515 5.31107 9.84747 5.40232L9.51703 3.93917ZM5.33097 9.84414C5.233 10.2466 4.82732 10.4934 4.42486 10.3955C4.0224 10.2975 3.77556 9.89181 3.87353 9.48935L5.33097 9.84414ZM8.46895 2.37266C5.66237 3.37998 3.43833 5.56681 2.38378 8.35599L0.980718 7.82551C2.19059 4.62549 4.74224 2.11654 7.96222 0.960839L8.46895 2.37266ZM9.84747 5.40232C7.62069 5.90523 5.87093 7.62605 5.33097 9.84414L3.87353 9.48935C4.54822 6.71779 6.7346 4.56756 9.51703 3.93917L9.84747 5.40232Z" fill="#1D1D1D"/>
</svg>
