<svg width="18" height="18" viewBox="0 0 18 18" fill="none" xmlns="http://www.w3.org/2000/svg">
<path d="M6.05518 4.04606C6.4694 4.04606 6.80518 3.71027 6.80518 3.29606C6.80518 2.88184 6.4694 2.54606 6.05518 2.54606V4.04606ZM12.638 2.54606C12.2238 2.54606 11.888 2.88184 11.888 3.29606C11.888 3.71027 12.2238 4.04606 12.638 4.04606V2.54606ZM6.05518 2.54606C5.64097 2.54606 5.30518 2.88184 5.30518 3.29606C5.30518 3.71027 5.64097 4.04606 6.05518 4.04606V2.54606ZM12.638 4.04606C13.0523 4.04606 13.388 3.71027 13.388 3.29606C13.388 2.88184 13.0523 2.54606 12.638 2.54606V4.04606ZM6.80518 3.29606C6.80518 2.88184 6.46939 2.54606 6.05518 2.54606C5.64097 2.54606 5.30518 2.88184 5.30518 3.29606H6.80518ZM5.30518 4.27742C5.30518 4.69164 5.64097 5.02742 6.05518 5.02742C6.46939 5.02742 6.80518 4.69164 6.80518 4.27742H5.30518ZM5.30518 3.29606C5.30518 3.71027 5.64097 4.04606 6.05518 4.04606C6.46939 4.04606 6.80518 3.71027 6.80518 3.29606H5.30518ZM6.80518 1.33333C6.80518 0.919118 6.46939 0.583332 6.05518 0.583332C5.64097 0.583332 5.30518 0.919118 5.30518 1.33333H6.80518ZM13.388 3.29606C13.388 2.88184 13.0523 2.54606 12.638 2.54606C12.2238 2.54606 11.888 2.88184 11.888 3.29606L13.388 3.29606ZM11.888 4.27742C11.888 4.69164 12.2238 5.02742 12.638 5.02742C13.0523 5.02742 13.388 4.69164 13.388 4.27742H11.888ZM11.888 3.29606C11.888 3.71027 12.2238 4.04606 12.638 4.04606C13.0523 4.04606 13.388 3.71027 13.388 3.29606L11.888 3.29606ZM13.388 1.33333C13.388 0.919118 13.0523 0.583332 12.638 0.583332C12.2238 0.583332 11.888 0.919118 11.888 1.33333L13.388 1.33333ZM6.05518 2.54606C3.29807 2.54606 0.916611 4.56287 0.916611 7.22151H2.41661C2.41661 5.54422 3.96481 4.04606 6.05518 4.04606V2.54606ZM0.916611 7.22151V13.1097H2.41661V7.22151H0.916611ZM0.916611 13.1097C0.916611 15.7683 3.29807 17.7852 6.05518 17.7852V16.2852C3.96481 16.2852 2.41661 14.787 2.41661 13.1097H0.916611ZM6.05518 17.7852H12.638V16.2852H6.05518V17.7852ZM12.638 17.7852C15.3952 17.7852 17.7766 15.7683 17.7766 13.1097H16.2766C16.2766 14.787 14.7284 16.2852 12.638 16.2852V17.7852ZM17.7766 13.1097V7.22151H16.2766V13.1097H17.7766ZM17.7766 7.22151C17.7766 4.56287 15.3952 2.54606 12.638 2.54606V4.04606C14.7284 4.04606 16.2766 5.54422 16.2766 7.22151H17.7766ZM6.05518 4.04606L12.638 4.04606V2.54606L6.05518 2.54606V4.04606ZM5.30518 3.29606V4.27742H6.80518V3.29606H5.30518ZM6.80518 3.29606V1.33333H5.30518V3.29606H6.80518ZM11.888 3.29606V4.27742H13.388V3.29606L11.888 3.29606ZM13.388 3.29606V1.33333L11.888 1.33333V3.29606L13.388 3.29606Z" fill="#FF8300"/>
<path d="M4.95801 10.1656L7.15229 13.1097L13.7352 8.20288" stroke="#FF8300" stroke-width="1.5" stroke-linecap="round" stroke-linejoin="round"/>
</svg>
