<svg width="28" height="28" viewBox="0 0 28 28" fill="none" xmlns="http://www.w3.org/2000/svg">
<path d="M24.2084 9.04166H3.20837C2.73004 9.04166 2.33337 8.64499 2.33337 8.16666C2.33337 7.68832 2.73004 7.29166 3.20837 7.29166H24.2084C24.6867 7.29166 25.0834 7.68832 25.0834 8.16666C25.0834 8.64499 24.6867 9.04166 24.2084 9.04166Z" fill="#292D32"/>
<path d="M23.0416 14.875H9.04163C8.56329 14.875 8.16663 14.4783 8.16663 14C8.16663 13.5217 8.56329 13.125 9.04163 13.125H23.0416C23.52 13.125 23.9166 13.5217 23.9166 14C23.9166 14.4783 23.52 14.875 23.0416 14.875Z" fill="#292D32"/>
<path d="M23.0417 20.4167H18.375C17.8967 20.4167 17.5 20.02 17.5 19.5417C17.5 19.0633 17.8967 18.6667 18.375 18.6667H23.0417C23.52 18.6667 23.9167 19.0633 23.9167 19.5417C23.9167 20.02 23.52 20.4167 23.0417 20.4167Z" fill="#292D32"/>
</svg>
